Coordinates
version=1
nRows=18
nColumns=26
inDegrees=yes

Units are S.I. units (second, meters, Newtons, ...)
If the header above contains a line with 'inDegrees', this indicates whether rotational values are in degrees (yes) or radians (no).

endheader
time	pelvis_tilt	pelvis_list	pelvis_rotation	pelvis_tx	pelvis_ty	pelvis_tz	hip_flexion_r	hip_adduction_r	hip_rotation_r	knee_angle_r	knee_angle_r_beta	hip_flexion_l	hip_adduction_l	hip_rotation_l	knee_angle_l	knee_angle_l_beta	lumbar_extension	lumbar_bending	lumbar_rotation	ankle_angle_r	subtalar_angle_r	mtp_angle_r	ankle_angle_l	subtalar_angle_l	mtp_angle_l
      1.87500000	     -8.78332113	      0.73831275	      1.06786615	      0.39574904	      0.69071615	     -0.33984949	     30.34913202	    -15.03040418	    -15.53619959	     61.02856154	      1.06514934	     13.47645384	      1.05841560	     -6.06946013	     15.15099650	      0.26443477	     -3.22888640	     -0.12980705	     -6.31220269	      3.34211706	     -6.14587421	      0.00000000	      7.08989815	      1.20629483	      0.00000000
      1.88000000	     -8.70229895	      0.04675827	      1.49061777	      0.40219323	      0.69147395	     -0.33980832	     30.41068054	    -14.48663774	    -16.95147113	     59.31858310	      1.03530458	     12.37739190	      0.45368351	     -5.36688353	     14.22926564	      0.24834754	     -3.38058050	      0.62323313	     -6.85965152	      3.53236221	     -6.46727850	      0.00000000	      7.29680430	      1.61813346	      0.00000000
      1.88500000	     -8.56172759	     -0.00385454	      1.76073571	      0.40862767	      0.69220712	     -0.33990275	     30.55955128	    -14.65955822	    -18.06578163	     57.71243495	      1.00727201	     10.55369747	      0.59730330	     -4.96437396	     12.07724126	      0.21078762	     -3.64311396	      0.62466038	     -7.16219611	      3.82775851	     -6.11831839	      0.00000000	      6.91526522	      1.89727884	      0.00000000
      1.89000000	     -8.75955083	     -0.30123344	      2.06000135	      0.41481506	      0.69225659	     -0.33987313	     31.10269931	    -14.37119564	    -18.93120885	     56.00783759	      0.97752117	     10.14136085	      0.32114999	     -4.65765772	     11.90733818	      0.20782226	     -3.51545553	      0.88124849	     -7.49583723	      4.09584200	     -6.24444072	      0.00000000	      7.16980637	      1.94959636	      0.00000000
      1.89500000	     -8.91242202	     -0.60337589	      2.36926613	      0.42099772	      0.69223452	     -0.33985970	     31.55639435	    -14.06676619	    -19.81143107	     54.19320976	      0.94584994	      9.63866201	      0.04424005	     -4.32442216	     11.65089402	      0.20334646	     -3.44706455	      1.14972296	     -7.81418012	      4.22459788	     -6.32364182	      0.00000000	      7.46787950	      2.01028742	      0.00000000
      1.90000000	     -9.10019210	     -0.86905988	      2.69873886	      0.42712965	      0.69206393	     -0.33985577	     32.04476232	    -13.75343350	    -20.57467386	     52.30699400	      0.91292927	      9.18882974	     -0.19789144	     -4.01525189	     11.40156378	      0.19899483	     -3.35480603	      1.35927541	     -8.13589088	      4.38257077	     -6.34871218	      0.00000000	      7.73853979	      2.07221479	      0.00000000
      1.90500000	     -9.29979040	     -1.11114289	      3.00582388	      0.43323215	      0.69176251	     -0.33981462	     32.52691731	    -13.43895180	    -21.31407251	     50.33583649	      0.87852608	      8.73268054	     -0.41276183	     -3.70226298	     11.11961570	      0.19407391	     -3.25712833	      1.54019270	     -8.40515376	      4.43984213	     -6.30478663	      0.00000000	      8.02939017	      2.10038306	      0.00000000
      1.91000000	     -9.45663536	     -0.96957595	      3.28558515	      0.43935342	      0.69123430	     -0.33987778	     33.14742621	    -13.47101045	    -21.57071606	     48.56861617	      0.84768227	      8.34404633	     -0.23698334	     -3.61381570	     11.13013517	      0.19425750	     -3.22561122	      1.25008044	     -8.66927446	      4.52832075	     -6.20891399	      0.00000000	      8.42390192	      2.02765358	      0.00000000
      1.91500000	     -9.82833041	     -1.54024330	      3.66255122	      0.44525913	      0.69063909	     -0.33974927	     33.63841002	    -12.71410749	    -22.34031715	     46.17603582	      0.80592386	      8.15228314	     -0.81527970	     -3.17213371	     10.88973530	      0.19006174	     -2.95374766	      1.79861259	     -9.00790266	      4.63983538	     -6.11032227	      0.00000000	      8.66453784	      2.12414222	      0.00000000
      1.92000000	     -9.96922767	     -1.32816387	      3.96255103	      0.45136717	      0.68988425	     -0.33976541	     34.26682329	    -12.79806106	    -22.44787784	     44.40651540	      0.77503990	      7.76684508	     -0.56942901	     -3.08474792	     10.95118243	      0.19113419	     -2.97133933	      1.40716848	     -9.27806835	      4.65183966	     -5.92647734	      0.00000000	      9.14961666	      2.01476006	      0.00000000
      1.92500000	    -10.38769603	     -1.84547696	      4.31879007	      0.45728595	      0.68902299	     -0.33956894	     34.75699340	    -11.95784906	    -22.87036401	     41.76522259	      0.72894065	      7.72853831	     -1.10238659	     -2.63809216	     10.91401614	      0.19048552	     -2.63100200	      1.86991343	     -9.50495237	      4.88002934	     -5.67285750	      0.00000000	      9.31301010	      2.10766067	      0.00000000
      1.93000000	    -10.68819422	     -2.10120970	      4.59531478	      0.46328146	      0.68808705	     -0.33948356	     35.26096052	    -11.44521967	    -23.14420692	     39.37324541	      0.68719277	      7.61999411	     -1.36185657	     -2.44372153	     11.07292438	      0.19325899	     -2.44339622	      2.07341367	     -9.72240857	      4.75962298	     -5.37616929	      0.00000000	      9.77019594	      1.86500457	      0.00000000
      1.93500000	    -10.95855192	     -2.19464036	      4.92444601	      0.46934309	      0.68701516	     -0.33929564	     35.79315047	    -11.04990108	    -23.07504766	     37.06126231	      0.64684105	      7.51376340	     -1.46193155	     -2.18849073	     11.33078855	      0.19775957	     -2.29490377	      2.00685035	     -9.94448963	      4.90308878	     -4.99570279	      0.00000000	     10.15216168	      1.71324870	      0.00000000
      1.94000000	    -11.26842566	     -2.40906315	      5.18899353	      0.47542589	      0.68585618	     -0.33909348	     36.25684360	    -10.48452619	    -23.02955127	     34.52440789	      0.60256459	      7.52566721	     -1.69759627	     -2.00326367	     11.73603133	      0.20483239	     -2.08349439	      2.12883984	    -10.11443111	      4.89147173	     -4.57572287	      0.00000000	     10.61051943	      1.40949487	      0.00000000
      1.94500000	    -11.52767945	     -2.51618940	      5.47068657	      0.48155175	      0.68463469	     -0.33883597	     36.71246317	    -10.01737451	    -22.76040302	     32.07929976	      0.55988940	      7.53992153	     -1.83046221	     -1.77635251	     12.26579444	      0.21407850	     -1.93997558	      2.08931757	    -10.28140300	      4.98490741	     -4.10571210	      0.00000000	     11.07672382	      1.11839790	      0.00000000
      1.95000000	    -11.80579181	     -2.71354856	      5.70095115	      0.48769884	      0.68333176	     -0.33857109	     37.08950413	     -9.42139409	    -22.46079396	     29.45785983	      0.51413664	      7.67009412	     -2.07186069	     -1.60126192	     12.98735208	      0.22667205	     -1.76003041	      2.20277017	    -10.38126618	      4.99116224	     -3.61025774	      0.00000000	     11.55219609	      0.71772111	      0.00000000
      1.95500000	    -12.03709021	     -2.82063428	      5.94594932	      0.49395682	      0.68194975	     -0.33831614	     37.42978035	     -8.92829703	    -21.98802528	     26.92080599	      0.46985670	      7.78084549	     -2.22192098	     -1.40734066	     13.80891282	      0.24101099	     -1.61837801	      2.20500611	    -10.49805242	      5.06789180	     -3.08754853	      0.00000000	     12.06473130	      0.31666448	      0.00000000
      1.96000000	    -12.21593982	     -2.83400356	      6.19221088	      0.50037759	      0.68052354	     -0.33804134	     37.75997774	     -8.56364487	    -21.37621365	     24.57709719	      0.42895127	      7.77340448	     -2.27640330	     -1.20635812	     14.56539322	      0.25421407	     -1.51900722	      2.09320250	    -10.58436178	      5.27290945	     -2.53370001	      0.00000000	     12.52220145	      0.00653737	      0.00000000
